<?xml version="1.0" standalone="no"?>
<!DOCTYPE svg PUBLIC "-//W3C//DTD SVG 20010904//EN"
 "http://www.w3.org/TR/2001/REC-SVG-20010904/DTD/svg10.dtd">
<svg version="1.0" xmlns="http://www.w3.org/2000/svg"
 width="432.000000pt" height="144.000000pt" viewBox="0 0 432.000000 144.000000"
 preserveAspectRatio="xMidYMid meet">

<g transform="translate(0.000000,144.000000) scale(0.100000,-0.100000)"
fill="#000000" stroke="none">
<path d="M745 1136 c-222 -55 -374 -281 -337 -502 44 -266 301 -435 557 -368
74 19 135 54 198 113 183 171 183 471 0 642 -119 112 -267 152 -418 115z m401
-260 l34 -34 0 -176 0 -176 -45 0 -45 0 0 48 c0 49 -21 92 -45 92 -29 0 -45
-31 -45 -86 l0 -54 -45 0 -45 0 0 49 c0 59 -25 97 -57 87 -26 -8 -43 -46 -43
-96 0 -40 0 -40 -40 -40 l-40 0 0 80 c0 90 -5 97 -61 82 -46 -11 -79 -61 -79
-118 l0 -44 -41 0 -42 0 7 95 c11 158 54 260 130 306 28 17 52 19 250 19 l218
0 34 -34z"/>
<path d="M684 785 c-8 -20 4 -35 27 -35 14 0 19 7 19 25 0 18 -5 25 -20 25
-11 0 -23 -7 -26 -15z"/>
<path d="M3050 932 c-40 -20 -60 -53 -60 -99 0 -29 -3 -33 -26 -33 -22 0 -25
-4 -22 -27 2 -20 9 -29 26 -31 21 -3 22 -7 22 -123 l0 -119 35 0 35 0 0 120 0
120 35 0 c32 0 35 2 35 30 0 28 -3 30 -36 30 -36 0 -36 1 -30 33 8 39 33 60
64 52 19 -5 22 -1 22 24 0 44 -40 54 -100 23z"/>
<path d="M3460 720 l0 -220 40 0 40 0 0 220 0 220 -40 0 -40 0 0 -220z"/>
<path d="M3800 861 l0 -80 -37 15 c-94 40 -183 -34 -183 -151 0 -89 56 -155
132 -155 32 0 74 21 90 44 4 6 8 1 8 -11 0 -20 5 -23 35 -23 l35 0 0 220 0
220 -40 0 -40 0 0 -79z m-26 -132 c23 -18 26 -28 26 -77 0 -43 -5 -61 -22 -79
-28 -30 -63 -29 -95 3 -23 23 -25 31 -21 81 7 85 56 116 112 72z"/>
<path d="M1463 913 c-10 -3 -13 -55 -13 -209 l0 -204 35 0 35 0 0 85 0 85 31
0 c58 0 72 -17 99 -122 12 -47 14 -48 51 -48 22 0 39 1 39 3 -3 35 -44 155
-60 172 l-22 23 21 11 c26 14 51 61 51 96 0 76 -63 116 -183 114 -39 0 -78 -3
-84 -6z m165 -69 c15 -10 22 -25 22 -49 0 -43 -29 -65 -87 -65 l-43 0 0 65 0
65 43 0 c23 0 53 -7 65 -16z"/>
<path d="M1833 789 c-79 -39 -109 -165 -56 -237 44 -61 132 -78 204 -41 105
53 102 231 -5 280 -53 24 -91 24 -143 -2z m116 -58 c23 -23 36 -80 27 -115
-17 -70 -81 -90 -124 -40 -21 24 -24 35 -20 81 3 32 12 61 23 73 23 25 69 26
94 1z"/>
<path d="M2143 796 c-37 -17 -53 -43 -53 -85 0 -38 24 -63 84 -90 80 -35 51
-89 -38 -69 -40 9 -55 1 -56 -30 0 -36 120 -43 171 -9 29 19 34 29 37 68 3 51
-2 59 -77 99 -31 17 -46 32 -46 45 0 18 7 20 52 20 43 -1 54 3 59 18 3 10 2
23 -3 28 -17 17 -97 20 -130 5z"/>
<path d="M2403 789 c-57 -28 -87 -89 -81 -160 9 -87 69 -139 160 -139 67 0
100 15 96 43 -3 20 -7 22 -60 19 -74 -5 -117 17 -118 61 0 15 11 17 101 17
l102 0 -6 50 c-7 61 -31 99 -74 116 -45 19 -71 18 -120 -7z m117 -72 c8 -14
12 -29 8 -32 -3 -3 -35 -5 -72 -3 l-65 3 12 25 c27 53 88 57 117 7z"/>
<path d="M2770 803 c-8 -3 -27 -15 -42 -25 -28 -19 -28 -19 -28 1 0 17 -6 21
-30 21 l-30 0 0 -150 0 -150 35 0 35 0 0 84 c0 100 13 144 45 152 65 16 85
-16 85 -143 l0 -93 35 0 35 0 0 120 c0 117 -1 120 -27 150 -28 31 -81 46 -113
33z"/>
<path d="M3240 799 c-60 -24 -91 -78 -91 -154 0 -108 63 -162 179 -152 71 5
84 13 76 43 -5 20 -11 21 -69 16 -58 -4 -65 -3 -89 21 -48 49 -38 57 73 57
112 0 115 2 100 71 -12 51 -32 77 -76 95 -37 16 -68 17 -103 3z m94 -65 c9 -8
16 -24 16 -35 0 -17 -7 -19 -65 -19 -70 0 -78 7 -49 48 18 26 74 30 98 6z"/>
</g>
</svg>
