<?xml version="1.0" standalone="no"?>
<!DOCTYPE svg PUBLIC "-//W3C//DTD SVG 20010904//EN"
 "http://www.w3.org/TR/2001/REC-SVG-20010904/DTD/svg10.dtd">
<svg version="1.0" xmlns="http://www.w3.org/2000/svg"
 width="3200.000000pt" height="1320.000000pt" viewBox="0 0 3200.000000 1320.000000"
 preserveAspectRatio="xMidYMid meet">
<metadata>
Created by potrace 1.16, written by Peter Selinger 2001-2019
</metadata>
<g transform="translate(0.000000,1320.000000) scale(0.100000,-0.100000)"
fill="#000000" stroke="none">
<path d="M5845 10751 c-22 -11 -452 -258 -955 -549 -818 -472 -918 -533 -945
-571 l-30 -43 -3 -1063 -2 -1063 -905 -522 c-667 -385 -913 -531 -934 -557
-16 -20 -34 -55 -40 -79 -16 -61 -15 -2158 0 -2220 7 -26 26 -60 48 -83 26
-29 283 -182 946 -564 501 -288 924 -531 942 -541 42 -21 144 -21 186 0 18 9
425 244 906 521 481 278 880 507 887 510 7 3 411 -224 896 -505 486 -280 897
-517 915 -526 42 -21 144 -21 186 0 18 10 442 253 942 541 663 382 920 535
946 564 22 23 41 57 48 83 16 63 16 2174 0 2231 -7 24 -28 56 -53 80 -26 26
-359 223 -943 560 l-903 520 0 1040 c0 991 -1 1042 -19 1080 -10 22 -31 52
-47 67 -16 15 -447 269 -959 564 l-930 538 -70 3 c-54 3 -79 -1 -110 -16z
m137 -321 c41 -12 1589 -900 1626 -934 13 -12 34 -39 45 -61 22 -40 22 -41 25
-907 1 -478 0 -868 -3 -868 -7 0 -403 228 -437 252 l-28 19 0 607 c0 569 -2
610 -19 647 -10 22 -29 50 -42 61 -23 20 -1013 595 -1108 644 -36 18 -56 21
-110 18 -66 -4 -67 -4 -616 -321 -600 -346 -615 -357 -635 -450 -8 -36 -10
-244 -8 -687 3 -628 3 -635 25 -675 11 -22 32 -50 45 -61 12 -12 271 -165 573
-340 l550 -318 66 -4 c49 -3 75 0 100 13 19 10 259 148 535 306 l501 289 241
-137 c133 -76 241 -141 242 -144 0 -12 -1532 -890 -1572 -900 l-43 -12 -863
499 -863 498 -14 50 c-13 42 -15 185 -15 941 0 985 -1 961 63 1028 33 34 1558
919 1626 943 44 16 66 17 113 4z m-4 -730 c48 -11 929 -516 975 -559 16 -14
39 -44 50 -66 22 -39 22 -50 25 -537 2 -315 -1 -498 -7 -498 -5 0 -132 71
-283 158 l-273 158 -5 164 c-6 176 -15 213 -64 259 -37 35 -385 230 -423 237
-69 13 -111 -2 -295 -108 -189 -107 -232 -141 -254 -195 -20 -46 -20 -490 -1
-536 22 -51 80 -95 265 -201 186 -106 232 -121 305 -97 20 7 106 52 191 102
85 49 159 89 164 89 6 0 128 -68 272 -151 l261 -151 -28 -18 c-218 -132 -839
-481 -872 -490 -33 -9 -55 -9 -88 -1 -48 12 -930 518 -977 560 -16 14 -37 44
-47 66 -17 37 -19 76 -19 595 0 519 2 558 19 595 10 22 31 52 47 66 24 22 799
475 914 534 29 15 71 29 100 34 3 0 24 -4 48 -9z m1955 -2546 c57 -30 1521
-875 1558 -900 20 -14 48 -47 63 -73 l26 -49 0 -938 c0 -932 0 -938 -21 -981
-12 -24 -35 -54 -53 -67 -69 -52 -1583 -918 -1623 -929 -33 -8 -54 -8 -88 1
-36 9 -1520 855 -1547 880 -9 10 442 267 467 267 11 -1 245 -131 520 -290 275
-159 518 -295 540 -303 88 -31 92 -29 694 318 371 214 566 332 587 356 17 19
37 53 43 77 9 30 11 219 9 692 l-3 650 -27 46 c-34 57 -8 41 -636 404 -337
194 -530 300 -562 307 -33 8 -60 8 -88 1 -32 -8 -989 -552 -1124 -639 -21 -13
-50 -43 -65 -66 l-28 -42 -5 -620 -5 -621 -230 -132 c-126 -73 -233 -133 -238
-133 -4 0 -6 397 -5 883 3 868 3 883 24 920 18 35 91 79 860 523 816 472 840
485 882 480 23 -3 57 -13 75 -22z m-4013 -307 l0 -283 -517 -299 c-285 -164
-530 -308 -546 -319 -15 -11 -38 -42 -52 -70 l-25 -50 0 -660 c0 -650 0 -660
21 -703 12 -24 35 -54 53 -67 40 -31 1070 -624 1116 -644 22 -9 56 -13 95 -10
59 4 77 13 605 318 347 200 560 329 586 355 25 24 46 56 53 80 15 55 15 1294
0 1349 -20 74 -62 103 -594 409 l-510 294 -3 277 c-1 152 0 276 3 276 12 0
1522 -874 1543 -893 53 -48 53 -49 50 -1033 l-3 -909 -24 -48 c-12 -26 -37
-58 -55 -71 -68 -52 -1582 -918 -1623 -929 -33 -8 -54 -8 -88 1 -47 12 -1591
897 -1633 936 -13 11 -34 39 -45 61 l-22 40 0 940 0 940 21 40 c12 22 31 49
43 59 22 20 1530 895 1544 896 4 0 7 -127 7 -283z m4438 -699 c251 -144 472
-276 491 -293 73 -64 71 -45 70 -665 l0 -555 -22 -45 c-30 -58 -39 -64 -566
-366 l-435 -249 -65 0 -66 0 -433 250 c-237 137 -432 252 -432 255 0 6 497
293 516 298 6 2 88 -40 180 -93 l169 -96 70 3 c68 4 75 7 240 102 209 121 228
135 254 189 20 40 21 60 21 278 -1 321 10 302 -240 446 -233 136 -247 141
-327 123 -52 -12 -362 -188 -411 -234 -61 -57 -66 -74 -72 -265 l-5 -173 -275
-159 -275 -159 -3 495 c-2 483 -2 497 19 544 11 27 32 60 47 74 27 25 845 500
937 544 99 47 97 48 613 -249z m-4438 -118 c0 -294 -1 -321 -17 -330 -10 -6
-90 -53 -178 -104 -127 -73 -166 -102 -190 -135 l-30 -43 -3 -240 -3 -241 26
-52 c29 -61 40 -69 260 -197 l160 -93 80 0 80 0 170 99 c94 54 187 115 207
134 65 61 69 87 66 348 l-3 231 -30 48 c-26 43 -47 58 -172 129 l-142 81 -1
333 c0 182 2 332 4 332 6 0 819 -471 848 -491 14 -11 38 -42 52 -71 l26 -52 0
-540 c0 -334 -4 -555 -10 -577 -21 -75 -64 -105 -533 -374 -246 -142 -467
-264 -489 -272 -46 -16 -104 -10 -152 14 -73 38 -885 508 -915 531 -19 14 -44
48 -58 78 l-24 52 3 554 3 553 27 46 c15 25 40 54 55 64 52 35 868 505 876
505 4 0 7 -144 7 -320z"/>
<path d="M28540 10680 l0 -39 93 -3 92 -3 3 -297 2 -298 50 0 50 0 0 300 0
300 90 0 90 0 0 40 0 40 -235 0 -235 0 0 -40z"/>
<path d="M29140 10380 l0 -340 50 0 50 0 0 230 c0 127 3 230 8 230 4 0 53
-102 109 -227 l101 -228 38 0 38 0 102 228 c55 125 104 230 107 234 4 3 7
-100 7 -230 l0 -237 50 0 50 0 0 340 0 340 -57 0 -58 0 -115 -261 c-63 -143
-118 -263 -121 -265 -4 -2 -60 116 -125 261 l-118 265 -58 0 -58 0 0 -340z"/>
<path d="M19894 8951 c-209 -34 -345 -150 -381 -327 -28 -137 9 -267 99 -351
63 -57 148 -95 336 -148 186 -52 265 -87 311 -140 42 -49 53 -78 53 -148 0
-147 -122 -247 -303 -247 -157 0 -276 85 -304 218 l-7 32 -100 0 -100 0 4 -54
c9 -108 95 -229 207 -289 76 -42 189 -67 300 -67 163 0 287 44 377 135 98 97
140 229 115 362 -33 181 -132 258 -444 348 -180 52 -260 88 -304 138 -93 106
-60 273 67 342 47 25 69 30 145 33 75 3 100 0 149 -18 70 -27 125 -79 152
-143 l19 -47 104 0 104 0 -6 35 c-18 109 -121 242 -224 287 -104 46 -258 66
-369 49z"/>
<path d="M11075 8928 c2 -7 90 -321 195 -698 105 -377 197 -709 206 -737 l15
-53 107 0 107 0 179 600 c99 330 182 597 185 594 3 -3 83 -272 177 -597 l171
-592 109 -3 109 -2 216 747 217 748 -100 3 c-56 1 -102 1 -104 -1 -2 -2 -77
-285 -166 -629 -90 -344 -165 -625 -168 -623 -3 2 -82 285 -175 630 l-170 626
-109 -3 -109 -3 -162 -570 c-212 -745 -195 -692 -204 -675 -5 8 -79 293 -166
633 l-158 617 -103 0 c-78 0 -102 -3 -99 -12z"/>
<path d="M13330 8190 l0 -750 95 0 95 0 0 340 0 340 385 0 385 0 0 -340 0
-340 95 0 95 0 0 750 0 750 -95 0 -95 0 0 -330 0 -330 -385 0 -385 0 0 330 0
330 -95 0 -95 0 0 -750z"/>
<path d="M16340 8191 l0 -751 95 0 95 0 0 310 0 310 118 0 118 0 180 -310 179
-309 117 -1 117 0 -181 301 c-99 166 -181 308 -182 316 -1 8 19 21 49 31 207
71 322 264 288 483 -27 170 -135 289 -312 342 -58 18 -104 21 -373 24 l-308 5
0 -751z m645 561 c60 -28 100 -63 128 -117 18 -33 22 -57 22 -135 0 -88 -2
-99 -31 -150 -37 -66 -101 -113 -174 -129 -28 -6 -130 -11 -225 -11 l-175 0 0
286 0 286 203 -4 c185 -3 206 -5 252 -26z"/>
<path d="M17690 8190 l0 -750 95 0 95 0 0 340 0 340 265 0 265 0 0 75 0 75
-265 0 -265 0 0 255 0 255 325 0 325 0 0 80 0 80 -420 0 -420 0 0 -750z"/>
<path d="M20710 8860 l0 -80 205 0 205 0 0 -670 0 -670 95 0 95 0 0 670 0 670
205 0 205 0 0 80 0 80 -505 0 -505 0 0 -80z"/>
<path d="M21970 8191 l0 -751 95 0 95 0 0 310 0 310 118 0 118 0 180 -310 179
-309 117 -1 117 0 -181 301 c-99 166 -181 308 -182 316 -1 8 19 21 49 31 207
71 322 264 288 483 -27 170 -135 289 -312 342 -58 18 -104 21 -373 24 l-308 5
0 -751z m645 561 c60 -28 100 -63 128 -117 18 -33 22 -57 22 -135 0 -88 -2
-99 -31 -150 -37 -66 -101 -113 -174 -129 -28 -6 -130 -11 -225 -11 l-175 0 0
286 0 286 203 -4 c185 -3 206 -5 252 -26z"/>
<path d="M23270 8190 l0 -750 400 0 400 0 0 80 0 80 -305 0 -305 0 0 260 0
260 275 0 275 0 0 80 0 80 -275 0 -275 0 0 250 0 250 305 0 305 0 0 80 0 80
-400 0 -400 0 0 -750z"/>
<path d="M24380 8190 l0 -750 400 0 400 0 0 80 0 80 -305 0 -305 0 0 260 0
260 275 0 275 0 0 80 0 80 -275 0 -275 0 0 250 0 250 305 0 305 0 0 80 0 80
-400 0 -400 0 0 -750z"/>
<path d="M25390 8860 l0 -80 205 0 205 0 0 -670 0 -670 95 0 95 0 0 670 0 670
205 0 205 0 0 80 0 80 -505 0 -505 0 0 -80z"/>
<path d="M15024 8185 l-271 -745 102 0 102 0 60 168 60 167 328 0 329 0 60
-167 60 -168 103 0 103 0 -11 28 c-8 21 -480 1319 -521 1435 l-10 27 -112 0
-111 0 -271 -745z m520 125 c69 -195 126 -361 126 -367 0 -10 -60 -13 -265
-13 -206 0 -265 3 -265 13 0 7 56 170 125 362 69 193 128 356 131 364 3 8 8
11 13 5 4 -5 65 -169 135 -364z"/>
<path d="M11796 6509 c-315 -46 -531 -210 -607 -459 -27 -89 -32 -260 -10
-350 33 -136 116 -252 240 -334 94 -63 171 -96 405 -172 351 -116 423 -162
451 -291 9 -46 -18 -132 -52 -165 -81 -78 -238 -98 -346 -44 -80 39 -118 92
-141 199 l-6 27 -287 0 -286 0 6 -68 c21 -218 160 -412 372 -519 138 -70 351
-109 545 -100 373 17 628 183 732 477 25 69 36 261 19 340 -6 30 -23 80 -37
110 -84 181 -240 285 -622 414 -226 77 -309 114 -365 165 -49 44 -67 85 -67
151 0 122 81 193 220 194 134 1 230 -65 259 -179 l11 -45 292 0 291 0 -6 63
c-3 35 -19 100 -36 146 -87 239 -295 390 -598 436 -106 16 -282 18 -377 4z"/>
<path d="M28796 6509 c-315 -46 -531 -210 -607 -459 -27 -89 -32 -260 -10
-350 33 -136 116 -252 240 -334 94 -63 171 -96 405 -172 351 -116 423 -162
451 -291 9 -46 -18 -132 -52 -165 -81 -78 -238 -98 -346 -44 -80 39 -118 92
-141 199 l-6 27 -287 0 -286 0 6 -68 c21 -218 160 -412 372 -519 138 -70 351
-109 545 -100 373 17 628 183 732 477 25 69 36 261 19 340 -6 30 -23 80 -37
110 -84 181 -240 285 -622 414 -226 77 -309 114 -365 165 -49 44 -67 85 -67
151 0 122 81 193 220 194 134 1 230 -65 259 -179 l11 -45 292 0 291 0 -6 63
c-3 35 -19 100 -36 146 -87 239 -295 390 -598 436 -106 16 -282 18 -377 4z"/>
<path d="M23932 6495 c-346 -63 -627 -267 -777 -565 -196 -391 -159 -927 88
-1256 53 -70 183 -196 247 -241 119 -81 295 -150 457 -178 111 -19 326 -19
439 0 357 63 654 290 812 622 l37 78 3 278 3 277 -591 0 -590 0 0 -200 0 -200
346 0 345 0 -6 -22 c-19 -60 -86 -168 -135 -218 -106 -106 -235 -154 -410
-153 -305 0 -522 160 -596 438 -8 33 -18 108 -21 167 -18 346 141 599 424 673
74 19 242 19 316 0 109 -28 202 -90 257 -171 l31 -44 299 0 299 0 -16 53 c-21
71 -74 185 -114 244 -153 226 -387 370 -679 418 -116 18 -365 19 -468 0z"/>
<path d="M13060 6275 l0 -215 295 0 295 0 0 -905 0 -905 270 0 270 0 2 903 3
902 298 3 297 2 0 215 0 215 -865 0 -865 0 0 -215z"/>
<path d="M15070 5370 l0 -1120 270 0 270 0 0 425 0 425 68 0 67 0 234 -425
233 -425 305 0 c240 0 304 3 300 13 -3 6 -118 206 -256 442 -243 415 -251 430
-229 439 217 89 330 183 407 342 46 94 63 181 63 309 -1 131 -17 199 -74 314
-31 65 -58 102 -112 155 -85 84 -156 128 -270 167 -153 53 -230 59 -778 59
l-498 0 0 -1120z m980 659 c75 -16 139 -64 172 -128 24 -46 28 -65 28 -135 -1
-134 -42 -209 -139 -255 -54 -25 -63 -26 -278 -29 l-223 -4 0 281 0 281 195 0
c106 0 217 -5 245 -11z"/>
<path d="M17507 5643 c-169 -467 -351 -971 -406 -1121 l-99 -272 286 2 285 3
66 195 66 195 420 0 420 0 66 -195 66 -195 286 -3 c158 -1 287 1 287 5 -1 5
-182 508 -403 1118 l-402 1110 -316 3 -316 2 -306 -847z m762 -177 c72 -213
131 -392 131 -397 0 -11 -550 -12 -550 -1 -1 26 275 811 281 800 4 -7 66 -188
138 -402z"/>
<path d="M19380 6275 l0 -215 295 0 295 0 0 -905 0 -905 270 0 270 0 2 903 3
902 298 3 297 2 0 215 0 215 -865 0 -865 0 0 -215z"/>
<path d="M21390 5370 l0 -1120 685 0 685 0 0 215 0 215 -412 2 -413 3 -3 248
-2 247 365 0 365 0 0 210 0 210 -365 0 -365 0 2 228 3 227 413 3 412 2 0 215
0 215 -685 0 -685 0 0 -1120z"/>
<path d="M25550 5370 l0 -1120 270 0 270 0 0 1120 0 1120 -270 0 -270 0 0
-1120z"/>
<path d="M26490 5370 l0 -1120 685 0 685 0 0 215 0 215 -412 2 -413 3 -3 248
-2 247 365 0 365 0 0 210 0 210 -365 0 -365 0 2 228 3 227 413 3 412 2 0 215
0 215 -685 0 -685 0 0 -1120z"/>
</g>
</svg>
