<?xml version="1.0" standalone="no"?>
<!DOCTYPE svg PUBLIC "-//W3C//DTD SVG 20010904//EN"
 "http://www.w3.org/TR/2001/REC-SVG-20010904/DTD/svg10.dtd">
<svg version="1.0" xmlns="http://www.w3.org/2000/svg"
 width="1100.000000pt" height="1100.000000pt" viewBox="0 0 1100.000000 1100.000000"
 preserveAspectRatio="xMidYMid meet">

<g transform="translate(0.000000,1100.000000) scale(0.100000,-0.100000)"
fill="#000000" stroke="none">
<path d="M5215 10520 c-879 -98 -1655 -459 -2235 -1040 -383 -383 -654 -838
-795 -1335 -27 -93 -79 -344 -89 -427 l-6 -47 68 -39 c37 -21 237 -135 445
-252 207 -118 377 -217 377 -221 0 -3 -200 -134 -446 -290 l-445 -283 7 -40
c14 -92 99 -411 146 -550 175 -524 443 -970 803 -1331 506 -509 1147 -816
1925 -922 193 -26 725 -26 920 0 1174 157 2141 768 2656 1678 180 317 308 718
352 1097 l8 73 -453 282 c-249 155 -453 285 -453 288 0 3 201 118 448 254 246
137 449 250 452 252 7 7 -30 139 -90 324 -214 648 -527 1177 -945 1594 -506
506 -1099 803 -1830 916 -115 17 -194 22 -440 24 -165 2 -336 -1 -380 -5z
m-35 -2401 c146 -245 272 -456 280 -467 14 -21 27 -3 295 428 l280 450 215 -7
c118 -3 217 -7 218 -9 2 -1 -159 -281 -359 -621 -199 -340 -362 -622 -362
-628 0 -5 181 -345 401 -755 221 -409 400 -745 399 -746 -1 -1 -117 -5 -257
-8 l-255 -7 -300 515 c-165 284 -303 516 -306 516 -4 0 -143 -231 -309 -512
-167 -282 -304 -514 -305 -516 -2 -2 -430 27 -452 31 -6 1 182 328 420 727
237 399 431 734 431 745 0 11 -174 301 -387 645 -283 455 -384 626 -372 628
33 7 402 40 430 39 28 -2 43 -25 295 -448z"/>
<path d="M7590 2510 c-162 -21 -345 -89 -464 -174 -219 -156 -351 -387 -414
-721 -25 -135 -22 -452 6 -605 22 -124 69 -274 109 -355 104 -207 280 -365
486 -436 144 -50 247 -62 462 -56 202 6 280 18 413 65 l77 27 3 136 c2 111 0
138 -12 148 -12 10 -38 7 -133 -18 -65 -16 -147 -35 -181 -41 -96 -17 -305
-14 -387 5 -329 76 -505 372 -505 850 0 383 138 672 380 799 112 59 168 71
325 70 156 0 216 -12 352 -70 45 -20 93 -34 105 -32 18 2 36 27 80 113 32 61
57 123 58 138 0 25 -7 31 -62 57 -185 83 -485 126 -698 100z"/>
<path d="M2700 2466 c-12 -23 6 -55 298 -539 171 -282 314 -521 318 -530 3
-10 -118 -223 -336 -591 -292 -494 -339 -579 -330 -596 10 -19 21 -20 160 -20
110 0 152 3 162 13 7 8 132 219 277 471 248 430 265 456 277 434 7 -12 125
-223 262 -468 l248 -445 168 -3 c169 -2 196 2 196 33 0 7 -151 269 -337 582
-185 312 -338 575 -340 583 -2 8 138 248 312 534 378 621 365 566 144 566
-132 0 -141 -1 -162 -22 -12 -13 -128 -200 -256 -416 -129 -216 -238 -389
-242 -385 -4 5 -112 184 -239 398 -127 215 -240 398 -251 408 -18 14 -43 17
-168 17 -146 0 -148 0 -161 -24z"/>
<path d="M4677 2472 c-16 -17 -17 -110 -17 -1138 0 -858 3 -1123 12 -1132 19
-19 673 -16 803 3 475 71 750 330 857 805 21 94 23 130 23 340 0 253 -9 318
-62 480 -132 394 -433 615 -886 650 -73 5 -263 10 -423 10 -269 0 -292 -1
-307 -18z m868 -321 c188 -61 315 -178 388 -358 77 -189 95 -520 42 -749 -64
-276 -215 -443 -470 -520 -82 -24 -109 -27 -297 -32 l-208 -4 0 847 0 847 238
-4 c212 -4 244 -7 307 -27z"/>
</g>
</svg>
